<svg width="16" height="22" viewBox="0 0 16 22" fill="none" xmlns="http://www.w3.org/2000/svg">
<path d="M7.99979 0C3.60645 0 0.0322266 3.57423 0.0322266 7.96752C0.0322266 13.4197 7.16242 21.4239 7.46599 21.762C7.75113 22.0796 8.24897 22.079 8.53359 21.762C8.83717 21.4239 15.9674 13.4197 15.9674 7.96752C15.9673 3.57423 12.3931 0 7.99979 0ZM7.99979 20.1837C5.60012 17.3332 1.46704 11.7095 1.46704 7.96761C1.46704 4.36537 4.39759 1.43481 7.99979 1.43481C11.602 1.43481 14.5325 4.36537 14.5325 7.96757C14.5325 11.7096 10.4001 17.3323 7.99979 20.1837Z" fill="#24492D"/>
<path d="M7.99985 3.95898C5.78945 3.95898 3.99121 5.75727 3.99121 7.96767C3.99121 10.1781 5.7895 11.9764 7.99985 11.9764C10.2102 11.9764 12.0084 10.1781 12.0084 7.96767C12.0084 5.75727 10.2102 3.95898 7.99985 3.95898ZM7.99985 10.5415C6.58059 10.5415 5.42602 9.38693 5.42602 7.96767C5.42602 6.54841 6.58064 5.3938 7.99985 5.3938C9.41907 5.3938 10.5737 6.54841 10.5737 7.96767C10.5737 9.38693 9.41907 10.5415 7.99985 10.5415Z" fill="#24492D"/>
</svg>
