<svg width="32" height="32" viewBox="0 0 32 32" fill="none" xmlns="http://www.w3.org/2000/svg">
<path d="M12.3863 20.3629L13.7616 20.0446C13.807 20.0345 13.852 20.0225 13.8964 20.0085C14.2761 19.9064 14.6013 19.661 14.8036 19.3239C15.0059 18.9867 15.0695 18.5843 14.9809 18.2012L14.9746 18.1768C14.9293 17.9933 14.8502 17.8198 14.7411 17.6653C14.587 17.4701 14.3963 17.3069 14.1797 17.1846C13.9247 17.0391 13.6577 16.9156 13.3817 16.8153L11.8748 16.2656C11.029 15.9515 10.1822 15.6448 9.32788 15.3455C8.77499 15.1492 8.30594 14.9762 7.89737 14.851C7.82097 14.8266 7.73607 14.8032 7.66709 14.7799C7.17363 14.6281 6.82873 14.5655 6.53478 14.5645C6.33917 14.5573 6.14435 14.5928 5.96385 14.6685C5.77528 14.7495 5.60602 14.8696 5.4672 15.0208C5.39824 15.0994 5.33342 15.1816 5.273 15.267C5.15533 15.4477 5.05816 15.641 4.98329 15.8432C4.70368 16.6703 4.56451 17.5383 4.57154 18.4114C4.57791 19.2009 4.59913 20.2133 5.03317 20.8999C5.13716 21.0761 5.27724 21.2289 5.44492 21.3467C5.75373 21.56 6.06573 21.5886 6.39152 21.612C6.87649 21.6459 7.34661 21.5271 7.81566 21.4188L12.3831 20.3619L12.3863 20.3629ZM27.7218 13.0597C27.3465 12.272 26.8418 11.5528 26.2287 10.9319C26.1492 10.8534 26.0641 10.7807 25.974 10.7144C25.8911 10.652 25.8051 10.5939 25.7161 10.5404C25.6242 10.4904 25.5296 10.4454 25.4328 10.4056C25.2422 10.3305 25.0379 10.2965 24.8332 10.3058C24.6376 10.3177 24.4468 10.3716 24.274 10.464C24.0118 10.5945 23.7285 10.8035 23.3507 11.1537C23.2987 11.2068 23.234 11.2652 23.1745 11.3193C22.8636 11.6122 22.5166 11.9741 22.1048 12.3943C21.4681 13.0374 20.842 13.6847 20.2191 14.3384L19.1048 15.4952C18.9011 15.7074 18.7153 15.9345 18.5498 16.1775C18.4087 16.3823 18.3089 16.6126 18.2558 16.8567C18.2245 17.0433 18.2288 17.2341 18.2686 17.4191L18.2749 17.4435C18.3632 17.8261 18.5965 18.1595 18.9257 18.3735C19.2549 18.5875 19.6543 18.6654 20.0397 18.5907C20.1002 18.5822 20.148 18.5716 20.1777 18.5652L26.1205 17.1899C26.5895 17.0817 27.0649 16.9819 27.4852 16.7378C27.7675 16.5733 28.0359 16.411 28.2195 16.0841C28.3182 15.904 28.3778 15.7051 28.3946 15.5005C28.4859 14.6908 28.0625 13.7707 27.7218 13.0597ZM17.0843 15.562C17.5151 15.0208 17.513 14.2143 17.5512 13.5542C17.6807 11.3511 17.8165 9.14805 17.9237 6.94286C17.9661 6.10875 18.0553 5.28525 18.0043 4.44371C17.964 3.74968 17.9587 2.95271 17.5204 2.38284C16.7457 1.37894 15.0966 1.46171 13.9717 1.61877C13.6268 1.66653 13.2819 1.7302 12.9392 1.81297C12.5964 1.89575 12.2579 1.98489 11.9257 2.09207C10.8465 2.44545 9.32788 3.09491 9.07107 4.33971C8.92674 5.0433 9.27058 5.76173 9.53694 6.40483C9.85955 7.18269 10.301 7.88309 10.7043 8.61533C11.7665 10.5499 12.85 12.4707 13.9304 14.3947C14.253 14.9677 14.6042 15.6957 15.2282 15.9929C15.2696 16.0109 15.311 16.0268 15.3545 16.0406C15.6336 16.1467 15.9382 16.168 16.23 16.099L16.283 16.0873C16.5515 16.013 16.7946 15.8676 16.9856 15.6639C17.0206 15.632 17.0535 15.5981 17.0843 15.562ZM16.5706 21.4613C16.4026 21.2246 16.1639 21.0472 15.8888 20.9546C15.6137 20.8619 15.3163 20.8587 15.0393 20.9455C14.9735 20.9667 14.9109 20.9933 14.8483 21.0241C14.7538 21.0729 14.6636 21.1297 14.5788 21.1938C14.3315 21.3764 14.1224 21.6151 13.9335 21.8539C13.8847 21.9155 13.8412 21.9961 13.7839 22.0492L12.8288 23.3651C12.2865 24.1016 11.7517 24.8402 11.2221 25.5904C10.8762 26.0754 10.578 26.484 10.3413 26.8458C10.2968 26.9148 10.2501 26.9912 10.2076 27.0517C9.92428 27.49 9.76404 27.8094 9.68233 28.0938C9.62043 28.2832 9.60087 28.4839 9.62502 28.6817C9.65155 28.8876 9.72053 29.085 9.82877 29.2622C9.88608 29.3514 9.94763 29.4373 10.0134 29.5201C10.1566 29.6848 10.3179 29.8329 10.4942 29.9616C11.1542 30.4211 11.8769 30.7511 12.6378 31.0058C13.2702 31.2153 13.9274 31.3406 14.5925 31.3783C14.705 31.3836 14.8186 31.3815 14.9321 31.3708C15.0365 31.3618 15.1403 31.3473 15.2431 31.3273C15.3461 31.3031 15.4478 31.2733 15.5476 31.2382C15.7391 31.1703 15.9132 31.061 16.0576 30.9181C16.2019 30.7752 16.313 30.6023 16.3828 30.4115C16.4932 30.1356 16.5653 29.7854 16.6131 29.2675C16.6173 29.1932 16.6279 29.1041 16.6354 29.0235C16.6725 28.5926 16.6906 28.0864 16.7181 27.4911C16.7638 26.5763 16.8009 25.6658 16.8296 24.751L16.8901 23.1274C16.9039 22.7517 16.8922 22.3378 16.7882 21.9653C16.7426 21.7868 16.6699 21.6166 16.5706 21.4613ZM27.3631 24.0007C27.1636 23.7821 26.8813 23.5635 26.4346 23.294C26.3709 23.2579 26.2945 23.2101 26.2255 23.1688C25.8541 22.9459 25.4063 22.7103 24.8842 22.4259C24.0821 21.9875 23.2762 21.5559 22.4667 21.1312L21.0341 20.3714C20.9598 20.3502 20.8845 20.2971 20.8144 20.2632C20.5391 20.1222 20.2466 20.0176 19.9442 19.9522C19.8399 19.9325 19.7341 19.9219 19.628 19.9204C19.5595 19.9184 19.491 19.9223 19.4232 19.9321C19.1366 19.9762 18.8712 20.1098 18.665 20.3137C18.4588 20.5176 18.3223 20.7815 18.2749 21.0676C18.2537 21.2501 18.2601 21.4347 18.2951 21.6141C18.3651 21.9961 18.536 22.3729 18.7122 22.7029L19.4773 24.1366C19.9028 24.9452 20.3347 25.7496 20.7762 26.5508C21.0617 27.0729 21.2983 27.5208 21.5201 27.8911C21.5626 27.9612 21.6103 28.0365 21.6475 28.1002C21.917 28.5459 22.1346 28.8271 22.3542 29.0277C22.4975 29.1657 22.6683 29.2707 22.8562 29.3354C23.0525 29.4002 23.2616 29.4235 23.4674 29.4034C23.5723 29.3906 23.6765 29.3721 23.7794 29.3482C23.8813 29.3217 23.9811 29.2888 24.0798 29.2516C24.1859 29.2113 24.2888 29.1635 24.3875 29.1083C24.9689 28.7821 25.5049 28.3807 25.9814 27.9145C26.5534 27.352 27.0586 26.7376 27.4512 26.0361C27.5061 25.9365 27.5537 25.8329 27.5934 25.7263C27.6305 25.6283 27.6624 25.5284 27.6889 25.427C27.7123 25.323 27.7303 25.219 27.742 25.114C27.7617 24.9075 27.7379 24.6993 27.672 24.5027C27.6073 24.3149 27.5012 24.1436 27.3631 24.0007Z" fill="#24492D"/>
</svg>
