<svg width="24" height="24" viewBox="0 0 24 24" fill="none" xmlns="http://www.w3.org/2000/svg">
<path d="M12.5 3L15.3769 9.00573L22 9.87539L17.155 14.4568L18.3713 21L12.5 17.8257L6.62868 21L7.845 14.4568L3 9.87539L9.62305 9.00573L12.5 3Z" fill="#F4BA45"/>
<path d="M12.5 3L15.3769 9.00573L22 9.87539L17.155 14.4568L18.3713 21L12.5 17.8257L6.62868 21L7.845 14.4568L3 9.87539L9.62305 9.00573L12.5 3Z" fill="#9C7D64"/>
<path d="M12.5 3L15.3769 9.00573L22 9.87539L17.155 14.4568L18.3713 21L12.5 17.8257L6.62868 21L7.845 14.4568L3 9.87539L9.62305 9.00573L12.5 3Z" fill="#BD945C"/>
</svg>
